<?xml version="1.0" encoding="UTF-8"?>
<svg width="513px" height="97px" viewBox="0 0 513 97" version="1.1" xmlns="http://www.w3.org/2000/svg" xmlns:xlink="http://www.w3.org/1999/xlink">
    <!-- Generator: Sketch 55.1 (78136) - https://sketchapp.com -->
    <title>Artboard</title>
    <desc>Created with Sketch.</desc>
    <g id="Artboard" stroke="none" stroke-width="1" fill="none" fill-rule="evenodd">
        <path d="M12.8048004,62.2478459 C12.6759906,61.9994919 12.5735298,61.6890541 12.4974149,61.3165231 C12.4213,60.9439921 12.3656785,60.5566839 12.3305485,60.1545869 C12.002669,60.4857256 11.6367376,60.79912 11.2327433,61.0947795 C10.8287489,61.3904391 10.3837763,61.6506155 9.89781209,61.8753168 C9.41184787,62.100018 8.89368898,62.2774111 8.34331987,62.4075013 C7.79295075,62.5375915 7.20746047,62.6026356 6.58683147,62.6026356 C5.57977309,62.6026356 4.66933571,62.454808 3.85549202,62.1591485 C3.04164833,61.863489 2.35076981,61.4643546 1.78283572,60.9617334 C1.21490163,60.4591122 0.775783925,59.8618889 0.465469424,59.1700456 C0.155154923,58.4782023 0,57.7301949 0,56.926001 C0,55.8734531 0.207849048,54.9510092 0.623553379,54.1586417 C1.03925771,53.3662741 1.62767544,52.7069633 2.38882421,52.1806893 C3.14997299,51.6544153 4.06626527,51.2611941 5.13772855,51.0010137 C6.20919183,50.7408333 7.40651944,50.6107451 8.72974731,50.6107451 L12.2778539,50.6107451 L12.2778539,49.102889 C12.2778539,48.5233963 12.1724656,48.0030434 11.961686,47.5418145 C11.7509063,47.0805856 11.4523063,46.6873644 11.0658769,46.3621389 C10.6794475,46.0369134 10.2081278,45.7856066 9.65190372,45.6082108 C9.09567961,45.4308151 8.47213247,45.3421186 7.78124358,45.3421186 C7.13719462,45.3421186 6.56048669,45.424902 6.05110251,45.5904714 C5.54171833,45.7560407 5.11138298,45.9748255 4.76008354,46.2468322 C4.40878411,46.518839 4.13653113,46.8411031 3.94331644,47.2136341 C3.75010175,47.5861651 3.65349586,47.9734732 3.65349586,48.3755702 L0.386427446,48.3755702 C0.398137428,47.6778137 0.576711962,46.9918939 0.922156406,46.3177902 C1.26760085,45.6436864 1.76526759,45.0375935 2.41517154,44.4994932 C3.06507549,43.9613928 3.85548737,43.5267798 4.78643087,43.1956412 C5.71737437,42.8645025 6.77418432,42.6989356 7.95689242,42.6989356 C9.03421069,42.6989356 10.0353991,42.8319804 10.9604876,43.098074 C11.8855761,43.3641676 12.6847703,43.7662585 13.3580942,44.3043588 C14.0314181,44.8424592 14.5612868,45.5135962 14.9477162,46.3177902 C15.3341456,47.1219841 15.5273574,48.0621673 15.5273574,49.138368 L15.5273574,58.0613279 C15.5273574,58.6999525 15.5859064,59.3770027 15.7030062,60.0924987 C15.820106,60.8079948 15.9840433,61.431827 16.194823,61.9640142 L16.194823,62.2478459 L12.8048004,62.2478459 Z M7.06108334,59.7465788 C7.69342232,59.7465788 8.2847675,59.6637954 8.83513662,59.4982261 C9.38550573,59.3326567 9.88609992,59.1138719 10.3369342,58.8418652 C10.7877685,58.5698584 11.1771195,58.2594206 11.504999,57.9105423 C11.8328784,57.5616641 12.0904942,57.1980083 12.2778539,56.8195641 L12.2778539,52.9346173 L9.25669383,52.9346173 C7.35967688,52.9346173 5.88424139,53.2184462 4.83034308,53.7861125 C3.77644478,54.3537788 3.24950353,55.2466572 3.24950353,56.4647745 C3.24950353,56.9378297 3.32854471,57.3753992 3.48662946,57.7774962 C3.64471421,58.1795932 3.88183777,58.5255096 4.19800726,58.815256 C4.51417675,59.1050023 4.91231014,59.3326567 5.39241937,59.4982261 C5.87252859,59.6637954 6.42874436,59.7465788 7.06108334,59.7465788 Z M24.819181,43.0537253 L25.0475245,45.8920426 C25.7384134,44.8986266 26.5873743,44.1210537 27.5944327,43.5593006 C28.601491,42.9975475 29.7256324,42.710762 30.9668904,42.6989356 C31.9622388,42.6989356 32.8668212,42.8408501 33.6806649,43.1246832 C34.4945086,43.4085164 35.1883146,43.851999 35.7621037,44.4551445 C36.3358928,45.0582899 36.7779379,45.8240366 37.0882524,46.7524075 C37.3985669,47.6807784 37.5537218,48.7835719 37.5537218,50.0608211 L37.5537218,62.2478459 L34.3042183,62.2478459 L34.3042183,50.131779 C34.3042183,49.2802796 34.2105399,48.5588811 34.0231802,47.9675621 C33.8358205,47.376243 33.5577126,46.8972818 33.1888482,46.530664 C32.8199838,46.1640461 32.3691563,45.8979566 31.8363521,45.7323872 C31.303548,45.5668179 30.6917106,45.4840345 30.0008217,45.4840345 C28.9117935,45.4840345 27.9545169,45.7589937 27.1289632,46.3089204 C26.3034096,46.8588471 25.644733,47.5832021 25.1529138,48.4820071 L25.1529138,62.2478459 L21.9034103,62.2478459 L21.9034103,43.0537253 L24.819181,43.0537253 Z M42.8758817,52.4911303 C42.8758817,51.0601381 43.0544562,49.744473 43.4116106,48.5440953 C43.7687651,47.3437176 44.2781416,46.3118813 44.9397555,45.4485555 C45.6013695,44.5852297 46.4005637,43.9111361 47.3373622,43.4262544 C48.2741607,42.9413728 49.3221883,42.6989356 50.4814764,42.6989356 C51.6173446,42.6989356 52.6097506,42.8911114 53.4587242,43.2754688 C54.3076979,43.6598262 55.0424882,44.2186143 55.6631172,44.95185 L55.6631172,35 L58.9126207,35 L58.9126207,62.2478459 L55.9265904,62.2478459 L55.7860714,60.2255449 C55.1537324,61.006086 54.3984499,61.5973962 53.5202013,61.9994932 C52.6419527,62.4015901 51.6173448,62.6026356 50.4463466,62.6026356 C49.2987685,62.6026356 48.2595232,62.3542853 47.3285797,61.8575773 C46.3976362,61.3608693 45.6042969,60.6749495 44.948538,59.7997973 C44.292779,58.9246451 43.7834025,57.8928088 43.4203931,56.7042575 C43.0573837,55.5157062 42.8758817,54.2355196 42.8758817,52.8636594 L42.8758817,52.4911303 Z M46.1253852,52.8636594 C46.1253852,53.7979435 46.2249185,54.6849088 46.4239882,55.5245819 C46.6230579,56.3642549 46.9304403,57.1033927 47.3461446,57.7420172 C47.761849,58.3806418 48.2917177,58.886212 48.9357666,59.258743 C49.5798156,59.631274 50.3526628,59.8175367 51.2543313,59.8175367 C51.8047004,59.8175367 52.3023672,59.7524926 52.7473464,59.6224024 C53.1923257,59.4923122 53.596314,59.3060495 53.9593234,59.0636087 C54.3223328,58.8211679 54.6443525,58.5314259 54.925392,58.194374 C55.2064316,57.8573222 55.4523375,57.4818402 55.6631172,57.0679169 L55.6631172,48.1626964 C55.2415578,47.3821552 54.6736323,46.7405837 53.9593234,46.2379625 C53.2450146,45.7353413 52.3550694,45.4840345 51.2894611,45.4840345 C50.3760825,45.4840345 49.594453,45.6732537 48.9445491,46.0516979 C48.2946451,46.4301421 47.761849,46.9416254 47.3461446,47.5861632 C46.9304403,48.230701 46.6230579,48.9757518 46.4239882,49.8213381 C46.2249185,50.6669243 46.1253852,51.5568461 46.1253852,52.4911303 L46.1253852,52.8636594 Z M77.5313977,42.6989356 C77.8358572,42.6989356 78.1520219,42.7078053 78.4799014,42.7255449 C78.8077809,42.7432844 79.1210182,42.7728499 79.4196227,42.8142423 C79.7182272,42.8556346 79.9934076,42.905896 80.2451722,42.9650279 C80.4969368,43.0241598 80.7047859,43.0892039 80.8687256,43.1601622 L80.4296035,46.3710086 C79.7972645,46.229092 79.197137,46.1256128 78.6292029,46.0605677 C78.0612688,45.9955226 77.4669962,45.9630005 76.8463672,45.9630005 C75.3240696,45.9630005 74.0916126,46.3118735 73.1489591,47.00963 C72.2063056,47.7073865 71.5124997,48.6830483 71.0675204,49.9366447 L71.0675204,62.2478459 L67.800452,62.2478459 L67.800452,43.0537253 L70.8918715,43.0537253 L71.0499555,46.1049164 C71.8228142,45.0523684 72.7508163,44.2215776 73.8339896,43.612519 C74.9171628,43.0034604 76.1496199,42.6989356 77.5313977,42.6989356 Z M85.7517633,52.4733908 C85.7517633,51.0897042 85.95083,49.8036045 86.3489694,48.6150532 C86.7471087,47.4265019 87.3179618,46.3946656 88.0615456,45.5195134 C88.8051294,44.6443612 89.7097119,43.9554849 90.7753201,43.4528637 C91.8409284,42.9502425 93.0411835,42.6989356 94.3761213,42.6989356 C95.7227692,42.6989356 96.9318066,42.9502425 98.0032699,43.4528637 C99.0747332,43.9554849 99.9822431,44.6443612 100.725827,45.5195134 C101.469411,46.3946656 102.040264,47.4265019 102.438403,48.6150532 C102.836542,49.8036045 103.035609,51.0897042 103.035609,52.4733908 L103.035609,52.8636594 C103.035609,54.247346 102.836542,55.5304891 102.438403,56.7131272 C102.040264,57.8957653 101.469411,58.9246451 100.725827,59.7997973 C99.9822431,60.6749495 99.0776606,61.3608693 98.0120523,61.8575773 C96.946444,62.3542853 95.746189,62.6026356 94.4112511,62.6026356 C93.0646033,62.6026356 91.8555659,62.3542853 90.7841026,61.8575773 C89.7126393,61.3608693 88.8051294,60.6749495 88.0615456,59.7997973 C87.3179618,58.9246451 86.7471087,57.8957653 86.3489694,56.7131272 C85.95083,55.5304891 85.7517633,54.247346 85.7517633,52.8636594 L85.7517633,52.4733908 Z M89.0012669,52.8636594 C89.0012669,53.8097699 89.11251,54.7115179 89.3349997,55.5689306 C89.5574893,56.4263432 89.8941462,57.1802637 90.3449805,57.8307146 C90.7958148,58.4811656 91.3608129,58.9956055 92.0399918,59.3740497 C92.7191707,59.7524939 93.5095826,59.9417131 94.4112511,59.9417131 C95.3012097,59.9417131 96.0828392,59.7524939 96.7561631,59.3740497 C97.429487,58.9956055 97.9915577,58.4811656 98.442392,57.8307146 C98.8932262,57.1802637 99.2298832,56.4263432 99.4523728,55.5689306 C99.6748624,54.7115179 99.7861056,53.8097699 99.7861056,52.8636594 L99.7861056,52.4733908 C99.7861056,51.5391067 99.671935,50.6432717 99.4435904,49.7858591 C99.2152457,48.9284465 98.8756614,48.174526 98.4248271,47.524075 C97.9739928,46.873624 97.4119222,46.3562276 96.7385982,45.9718702 C96.0652743,45.5875129 95.2777899,45.3953371 94.3761213,45.3953371 C93.4744528,45.3953371 92.6898958,45.5875129 92.0224269,45.9718702 C91.354958,46.3562276 90.7958148,46.873624 90.3449805,47.524075 C89.8941462,48.174526 89.5574893,48.9284465 89.3349997,49.7858591 C89.11251,50.6432717 89.0012669,51.5391067 89.0012669,52.4733908 L89.0012669,52.8636594 Z M108.761761,43.0537253 L118.475142,43.0537253 L118.475142,59.4095286 L124.675546,59.4095286 L124.675546,62.2478459 L108.761761,62.2478459 L108.761761,59.4095286 L115.225639,59.4095286 L115.225639,45.9097821 L108.761761,45.9097821 L108.761761,43.0537253 Z M114.804081,38.0157121 C114.804081,37.4716986 114.965091,37.0134332 115.287116,36.6409022 C115.60914,36.2683712 116.098025,36.0821085 116.753783,36.0821085 C117.397832,36.0821085 117.883789,36.2683712 118.211669,36.6409022 C118.539548,37.0134332 118.703486,37.4716986 118.703486,38.0157121 C118.703486,38.5478993 118.539548,38.9913819 118.211669,39.3461733 C117.883789,39.7009648 117.397832,39.8783578 116.753783,39.8783578 C116.098025,39.8783578 115.60914,39.7009648 115.287116,39.3461733 C114.965091,38.9913819 114.804081,38.5478993 114.804081,38.0157121 Z M129.224851,52.4911303 C129.224851,51.0601381 129.403426,49.744473 129.76058,48.5440953 C130.117734,47.3437176 130.627111,46.3118813 131.288725,45.4485555 C131.950339,44.5852297 132.749533,43.9111361 133.686332,43.4262544 C134.62313,42.9413728 135.671158,42.6989356 136.830446,42.6989356 C137.966314,42.6989356 138.95872,42.8911114 139.807694,43.2754688 C140.656667,43.6598262 141.391458,44.2186143 142.012087,44.95185 L142.012087,35 L145.26159,35 L145.26159,62.2478459 L142.27556,62.2478459 L142.135041,60.2255449 C141.502702,61.006086 140.747419,61.5973962 139.869171,61.9994932 C138.990922,62.4015901 137.966314,62.6026356 136.795316,62.6026356 C135.647738,62.6026356 134.608493,62.3542853 133.677549,61.8575773 C132.746606,61.3608693 131.953266,60.6749495 131.297507,59.7997973 C130.641748,58.9246451 130.132372,57.8928088 129.769362,56.7042575 C129.406353,55.5157062 129.224851,54.2355196 129.224851,52.8636594 L129.224851,52.4911303 Z M132.474355,52.8636594 C132.474355,53.7979435 132.573888,54.6849088 132.772958,55.5245819 C132.972027,56.3642549 133.27941,57.1033927 133.695114,57.7420172 C134.110818,58.3806418 134.640687,58.886212 135.284736,59.258743 C135.928785,59.631274 136.701632,59.8175367 137.603301,59.8175367 C138.15367,59.8175367 138.651337,59.7524926 139.096316,59.6224024 C139.541295,59.4923122 139.945283,59.3060495 140.308293,59.0636087 C140.671302,58.8211679 140.993322,58.5314259 141.274361,58.194374 C141.555401,57.8573222 141.801307,57.4818402 142.012087,57.0679169 L142.012087,48.1626964 C141.590527,47.3821552 141.022602,46.7405837 140.308293,46.2379625 C139.593984,45.7353413 138.704039,45.4840345 137.63843,45.4840345 C136.725052,45.4840345 135.943422,45.6732537 135.293518,46.0516979 C134.643615,46.4301421 134.110818,46.9416254 133.695114,47.5861632 C133.27941,48.230701 132.972027,48.9757518 132.772958,49.8213381 C132.573888,50.6669243 132.474355,51.5568461 132.474355,52.4911303 L132.474355,52.8636594 Z M165.636855,52.2959959 L152.199719,52.2959959 L152.199719,49.5995945 L165.636855,49.5995945 L165.636855,52.2959959 Z M173.541053,35 L183.254434,35 L183.254434,59.4095286 L189.454838,59.4095286 L189.454838,62.2478459 L173.541053,62.2478459 L173.541053,59.4095286 L180.00493,59.4095286 L180.00493,37.8560568 L173.541053,37.8560568 L173.541053,35 Z M195.128296,43.0537253 L204.841676,43.0537253 L204.841676,59.4095286 L211.04208,59.4095286 L211.04208,62.2478459 L195.128296,62.2478459 L195.128296,59.4095286 L201.592173,59.4095286 L201.592173,45.9097821 L195.128296,45.9097821 L195.128296,43.0537253 Z M201.170616,38.0157121 C201.170616,37.4716986 201.331625,37.0134332 201.65365,36.6409022 C201.975674,36.2683712 202.464559,36.0821085 203.120318,36.0821085 C203.764367,36.0821085 204.250324,36.2683712 204.578203,36.6409022 C204.906083,37.0134332 205.07002,37.4716986 205.07002,38.0157121 C205.07002,38.5478993 204.906083,38.9913819 204.578203,39.3461733 C204.250324,39.7009648 203.764367,39.8783578 203.120318,39.8783578 C202.464559,39.8783578 201.975674,39.7009648 201.65365,39.3461733 C201.331625,38.9913819 201.170616,38.5478993 201.170616,38.0157121 Z M232.313155,52.8636594 C232.313155,54.2355196 232.149218,55.5157062 231.821338,56.7042575 C231.493459,57.8928088 231.013357,58.9246451 230.381018,59.7997973 C229.748679,60.6749495 228.967049,61.3608693 228.036106,61.8575773 C227.105162,62.3542853 226.036642,62.6026356 224.830514,62.6026356 C223.612676,62.6026356 222.555866,62.3838508 221.660053,61.9462747 C220.764239,61.5086986 220.000174,60.8819098 219.367835,60.0658895 L219.209751,62.2478459 L216.223721,62.2478459 L216.223721,35 L219.473225,35 L219.473225,45.1115053 C220.093854,44.3309642 220.843281,43.7337409 221.72153,43.3198175 C222.599778,42.9058942 223.624386,42.6989356 224.795385,42.6989356 C226.013223,42.6989356 227.090525,42.9413728 228.027323,43.4262544 C228.964122,43.9111361 229.748679,44.5852297 230.381018,45.4485555 C231.013357,46.3118813 231.493459,47.3437176 231.821338,48.5440953 C232.149218,49.744473 232.313155,51.0601381 232.313155,52.4911303 L232.313155,52.8636594 Z M229.063651,52.4911303 C229.063651,51.5568461 228.9729,50.6669243 228.791396,49.8213381 C228.609891,48.9757518 228.320073,48.230701 227.921934,47.5861632 C227.523794,46.9416254 227.002708,46.4301421 226.358659,46.0516979 C225.71461,45.6732537 224.924198,45.4840345 223.9874,45.4840345 C223.425321,45.4840345 222.910089,45.5579482 222.44169,45.705778 C221.973291,45.8536078 221.554665,46.0605663 221.185801,46.3266599 C220.816936,46.5927535 220.489062,46.9061479 220.202167,47.2668525 C219.915273,47.6275571 219.672294,48.0207784 219.473225,48.4465281 L219.473225,56.8373036 C219.684004,57.2630533 219.932838,57.6562746 220.219732,58.0169792 C220.506627,58.3776838 220.837429,58.6940348 221.212148,58.9660416 C221.586868,59.2380483 222.008421,59.4479634 222.47682,59.5957932 C222.945219,59.743623 223.460451,59.8175367 224.02253,59.8175367 C224.912488,59.8175367 225.676553,59.631274 226.314747,59.258743 C226.952941,58.886212 227.474027,58.3806418 227.878022,57.7420172 C228.282016,57.1033927 228.580616,56.3642549 228.773831,55.5245819 C228.967045,54.6849088 229.063651,53.7979435 229.063651,52.8636594 L229.063651,52.4911303 Z M250.246901,42.6989356 C250.551361,42.6989356 250.867526,42.7078053 251.195405,42.7255449 C251.523285,42.7432844 251.836522,42.7728499 252.135126,42.8142423 C252.433731,42.8556346 252.708911,42.905896 252.960676,42.9650279 C253.21244,43.0241598 253.42029,43.0892039 253.584229,43.1601622 L253.145107,46.3710086 C252.512768,46.229092 251.912641,46.1256128 251.344707,46.0605677 C250.776772,45.9955226 250.1825,45.9630005 249.561871,45.9630005 C248.039573,45.9630005 246.807116,46.3118735 245.864463,47.00963 C244.921809,47.7073865 244.228003,48.6830483 243.783024,49.9366447 L243.783024,62.2478459 L240.515956,62.2478459 L240.515956,43.0537253 L243.607375,43.0537253 L243.765459,46.1049164 C244.538318,45.0523684 245.46632,44.2215776 246.549493,43.612519 C247.632667,43.0034604 248.865124,42.6989356 250.246901,42.6989356 Z M271.869273,62.2478459 C271.740464,61.9994919 271.638003,61.6890541 271.561888,61.3165231 C271.485773,60.9439921 271.430152,60.5566839 271.395022,60.1545869 C271.067142,60.4857256 270.701211,60.79912 270.297216,61.0947795 C269.893222,61.3904391 269.448249,61.6506155 268.962285,61.8753168 C268.476321,62.100018 267.958162,62.2774111 267.407793,62.4075013 C266.857424,62.5375915 266.271934,62.6026356 265.651305,62.6026356 C264.644246,62.6026356 263.733809,62.454808 262.919965,62.1591485 C262.106121,61.863489 261.415243,61.4643546 260.847309,60.9617334 C260.279375,60.4591122 259.840257,59.8618889 259.529942,59.1700456 C259.219628,58.4782023 259.064473,57.7301949 259.064473,56.926001 C259.064473,55.8734531 259.272322,54.9510092 259.688026,54.1586417 C260.103731,53.3662741 260.692148,52.7069633 261.453297,52.1806893 C262.214446,51.6544153 263.130738,51.2611941 264.202202,51.0010137 C265.273665,50.7408333 266.470992,50.6107451 267.79422,50.6107451 L271.342327,50.6107451 L271.342327,49.102889 C271.342327,48.5233963 271.236939,48.0030434 271.026159,47.5418145 C270.815379,47.0805856 270.516779,46.6873644 270.13035,46.3621389 C269.743921,46.0369134 269.272601,45.7856066 268.716377,45.6082108 C268.160153,45.4308151 267.536606,45.3421186 266.845717,45.3421186 C266.201668,45.3421186 265.62496,45.424902 265.115576,45.5904714 C264.606191,45.7560407 264.175856,45.9748255 263.824557,46.2468322 C263.473257,46.518839 263.201004,46.8411031 263.007789,47.2136341 C262.814575,47.5861651 262.717969,47.9734732 262.717969,48.3755702 L259.4509,48.3755702 C259.46261,47.6778137 259.641185,46.9918939 259.986629,46.3177902 C260.332074,45.6436864 260.829741,45.0375935 261.479645,44.4994932 C262.129549,43.9613928 262.91996,43.5267798 263.850904,43.1956412 C264.781847,42.8645025 265.838657,42.6989356 267.021365,42.6989356 C268.098684,42.6989356 269.099872,42.8319804 270.024961,43.098074 C270.950049,43.3641676 271.749243,43.7662585 272.422567,44.3043588 C273.095891,44.8424592 273.62576,45.5135962 274.012189,46.3177902 C274.398619,47.1219841 274.59183,48.0621673 274.59183,49.138368 L274.59183,58.0613279 C274.59183,58.6999525 274.650379,59.3770027 274.767479,60.0924987 C274.884579,60.8079948 275.048516,61.431827 275.259296,61.9640142 L275.259296,62.2478459 L271.869273,62.2478459 Z M266.125556,59.7465788 C266.757895,59.7465788 267.349241,59.6637954 267.89961,59.4982261 C268.449979,59.3326567 268.950573,59.1138719 269.401407,58.8418652 C269.852242,58.5698584 270.241593,58.2594206 270.569472,57.9105423 C270.897351,57.5616641 271.154967,57.1980083 271.342327,56.8195641 L271.342327,52.9346173 L268.321167,52.9346173 C266.42415,52.9346173 264.948714,53.2184462 263.894816,53.7861125 C262.840918,54.3537788 262.313977,55.2466572 262.313977,56.4647745 C262.313977,56.9378297 262.393018,57.3753992 262.551103,57.7774962 C262.709187,58.1795932 262.946311,58.5255096 263.26248,58.815256 C263.57865,59.1050023 263.976783,59.3326567 264.456892,59.4982261 C264.937002,59.6637954 265.493217,59.7465788 266.125556,59.7465788 Z M293.421386,42.6989356 C293.725846,42.6989356 294.04201,42.7078053 294.36989,42.7255449 C294.697769,42.7432844 295.011007,42.7728499 295.309611,42.8142423 C295.608216,42.8556346 295.883396,42.905896 296.135161,42.9650279 C296.386925,43.0241598 296.594774,43.0892039 296.758714,43.1601622 L296.319592,46.3710086 C295.687253,46.229092 295.087125,46.1256128 294.519191,46.0605677 C293.951257,45.9955226 293.356985,45.9630005 292.736356,45.9630005 C291.214058,45.9630005 289.981601,46.3118735 289.038947,47.00963 C288.096294,47.7073865 287.402488,48.6830483 286.957509,49.9366447 L286.957509,62.2478459 L283.69044,62.2478459 L283.69044,43.0537253 L286.78186,43.0537253 L286.939944,46.1049164 C287.712803,45.0523684 288.640805,44.2215776 289.723978,43.612519 C290.807151,43.0034604 292.039608,42.6989356 293.421386,42.6989356 Z M309.545949,55.4358844 L310.389064,57.7597567 L316.185476,43.0537253 L319.821407,43.0537253 L310.178285,65.2103396 C309.955796,65.7070476 309.671833,66.2333137 309.326388,66.7891536 C308.980944,67.3449935 308.562318,67.8594334 308.070499,68.3324886 C307.57868,68.8055438 307.0049,69.2017217 306.349141,69.521034 C305.693382,69.8403462 304.938099,70 304.083271,70 C303.931041,70 303.761249,69.9911303 303.573889,69.9733908 C303.386529,69.9556512 303.199172,69.9319988 303.011813,69.9024328 C302.824453,69.8728669 302.648806,69.8403448 302.484866,69.8048657 C302.320926,69.7693865 302.186264,69.739821 302.080874,69.7161683 L302.60782,67.0375063 C302.68979,67.0375063 302.801033,67.0434194 302.941553,67.0552458 C303.082073,67.0670722 303.228445,67.0788984 303.380675,67.0907248 C303.532905,67.1025512 303.679278,67.1114208 303.819797,67.117334 C303.960317,67.1232472 304.07156,67.1262038 304.15353,67.1262038 C304.598509,67.1262038 305.005425,67.0020286 305.37429,66.7536746 C305.743154,66.5053206 306.071028,66.2096655 306.357923,65.8667005 C306.644818,65.5237354 306.890723,65.1689493 307.095648,64.8023315 C307.300573,64.4357137 307.461583,64.1341455 307.578682,63.8976178 L308.878484,61.3431323 L300.693248,43.0537253 L304.329179,43.0537253 L309.545949,55.4358844 Z M338.352359,52.2959959 L324.915223,52.2959959 L324.915223,49.5995945 L338.352359,49.5995945 L338.352359,52.2959959 Z M353.440594,38.4059807 L353.440594,43.0537253 L360.677327,43.0537253 L360.677327,45.5904714 L353.440594,45.5904714 L353.440594,56.0212874 C353.440594,56.7663494 353.534273,57.381312 353.721633,57.8661936 C353.908992,58.3510752 354.166608,58.7383834 354.494487,59.0281298 C354.822367,59.3178761 355.200008,59.5218781 355.627422,59.6401419 C356.054837,59.7584057 356.508592,59.8175367 356.988701,59.8175367 C357.34,59.8175367 357.703004,59.7968409 358.077724,59.7554486 C358.452443,59.7140562 358.818375,59.6637949 359.175529,59.6046629 C359.532683,59.545531 359.866413,59.4834435 360.176727,59.4183984 C360.487042,59.3533533 360.74173,59.2971788 360.9408,59.2498733 L361.397487,61.5737456 C361.128157,61.7393149 360.800283,61.8841859 360.413853,62.0083629 C360.027424,62.1325399 359.605871,62.2389757 359.149182,62.3276736 C358.692492,62.4163715 358.209463,62.4843721 357.700079,62.5316776 C357.190695,62.5789832 356.684245,62.6026356 356.180716,62.6026356 C355.337598,62.6026356 354.550113,62.481417 353.818239,62.2389762 C353.086366,61.9965354 352.451109,61.6121837 351.912449,61.0859098 C351.37379,60.5596358 350.94931,59.8796291 350.638995,59.0458692 C350.328681,58.2121094 350.173526,57.2039255 350.173526,56.0212874 L350.173526,45.5904714 L345.185099,45.5904714 L345.185099,43.0537253 L350.173526,43.0537253 L350.173526,38.4059807 L353.440594,38.4059807 Z M375.730432,62.6026356 C374.395494,62.6026356 373.168892,62.3720246 372.050589,61.9107957 C370.932286,61.4495669 369.975009,60.8050388 369.17873,59.9771921 C368.382452,59.1493454 367.761832,58.1677705 367.316853,57.0324379 C366.871873,55.8971053 366.649387,54.661267 366.649387,53.324886 L366.649387,52.5798277 C366.649387,51.0305717 366.895293,49.6439494 367.387112,48.4199189 C367.878931,47.1958885 368.531753,46.1610956 369.345597,45.3155094 C370.15944,44.4699231 371.084515,43.8224385 372.120848,43.373036 C373.157182,42.9236335 374.219847,42.6989356 375.308875,42.6989356 C376.678943,42.6989356 377.87627,42.9384163 378.900894,43.4173847 C379.925517,43.8963531 380.777405,44.5586205 381.456584,45.4042068 C382.135763,46.249793 382.642212,47.2461507 382.975947,48.3933097 C383.309681,49.5404687 383.476546,50.78222 383.476546,52.1186011 L383.476546,53.5909782 L369.898891,53.5909782 C369.934021,54.4661304 370.100885,55.2880516 370.39949,56.0567663 C370.698094,56.8254811 371.107938,57.4966182 371.629032,58.0701977 C372.150126,58.6437772 372.773673,59.0961294 373.499692,59.4272681 C374.225711,59.7584068 375.027832,59.9239736 375.906081,59.9239736 C377.065369,59.9239736 378.095832,59.6874496 378.997501,59.2143943 C379.899169,58.7413391 380.648597,58.1145503 381.245806,57.3340091 L383.230638,58.8950836 C382.914468,59.3799653 382.519262,59.8441438 382.045008,60.287633 C381.570754,60.7311223 381.02332,61.1243436 380.402691,61.4673087 C379.782062,61.8102737 379.079474,62.085233 378.294905,62.2921946 C377.510336,62.4991563 376.655521,62.6026356 375.730432,62.6026356 Z M375.308875,45.3953371 C374.653116,45.3953371 374.032496,45.5165556 373.446997,45.7589965 C372.861498,46.0014373 372.334557,46.3562234 371.866158,46.8233654 C371.397758,47.2905075 371.002552,47.8640784 370.680528,48.5440953 C370.358503,49.2241122 370.13309,50.0075982 370.00428,50.8945768 L380.227042,50.8945768 L380.227042,50.646224 C380.191912,50.0075994 380.071887,49.3748975 379.866962,48.7480993 C379.662038,48.1213011 379.36051,47.5595565 378.962371,47.0628485 C378.564231,46.5661404 378.063637,46.1640495 377.460573,45.8565636 C376.857509,45.5490777 376.140284,45.3953371 375.308875,45.3953371 Z M390.414675,43.0537253 L390.502499,44.8631526 C390.888929,44.1890488 391.395378,43.6627828 392.021862,43.2843386 C392.648346,42.9058944 393.406556,42.710762 394.296514,42.6989356 C396.041302,42.6989356 397.206427,43.3848554 397.791926,44.7567157 C398.166646,44.1417438 398.661385,43.6479998 399.276159,43.2754688 C399.890933,42.9029378 400.637433,42.710762 401.515682,42.6989356 C402.909169,42.6989356 403.980617,43.1305921 404.730055,43.9939179 C405.479494,44.8572437 405.854208,46.1640392 405.854208,47.9143436 L405.854208,62.2478459 L402.762788,62.2478459 L402.762788,47.8788647 C402.762788,46.2704768 402.030926,45.4722081 400.567178,45.4840345 C400.180749,45.4840345 399.847019,45.5372524 399.56598,45.6436898 C399.28494,45.7501272 399.050744,45.8949982 398.863384,46.0783071 C398.676025,46.2616161 398.529652,46.4744877 398.424262,46.7169285 C398.318872,46.9593693 398.248613,47.2106762 398.213484,47.4708566 L398.213484,62.2478459 L395.122064,62.2478459 L395.122064,47.8611252 C395.122064,47.0924104 394.952272,46.5011002 394.612682,46.0871769 C394.273093,45.6732535 393.734442,45.4722081 392.996713,45.4840345 C392.317534,45.4840345 391.790593,45.6200358 391.415873,45.8920426 C391.041154,46.1640493 390.765974,46.5247486 390.590324,46.974151 L390.590324,62.2478459 L387.498904,62.2478459 L387.498904,43.0537253 L390.414675,43.0537253 Z M426.545641,52.8636594 C426.545641,54.2355196 426.381704,55.5157062 426.053825,56.7042575 C425.725945,57.8928088 425.245843,58.9246451 424.613504,59.7997973 C423.981168,60.6749495 423.199536,61.3608693 422.268592,61.8575773 C421.337649,62.3542853 420.274984,62.6026356 419.080566,62.6026356 C417.921278,62.6026356 416.899597,62.4134163 416.015493,62.0349721 C415.13139,61.6565279 414.37318,61.1125226 413.740841,60.4029397 L413.740841,69.6274709 L410.491337,69.6274709 L410.491337,43.0537253 L413.459803,43.0537253 L413.617887,45.1469843 C414.250226,44.3546168 415.014291,43.7485238 415.910104,43.3286873 C416.805918,42.9088507 417.845163,42.6989356 419.027871,42.6989356 C420.245709,42.6989356 421.323011,42.9413728 422.25981,43.4262544 C423.196608,43.9111361 423.981168,44.5852297 424.613504,45.4485555 C425.245843,46.3118813 425.725945,47.3437176 426.053825,48.5440953 C426.381704,49.744473 426.545641,51.0601381 426.545641,52.4911303 L426.545641,52.8636594 Z M423.296138,52.4911303 C423.296138,51.5568461 423.193677,50.6669243 422.988752,49.8213381 C422.783828,48.9757518 422.467663,48.230701 422.040249,47.5861632 C421.612834,46.9416254 421.071256,46.4301421 420.415497,46.0516979 C419.759738,45.6732537 418.975181,45.4840345 418.061802,45.4840345 C417.019614,45.4840345 416.144306,45.7294282 415.435852,46.220223 C414.727398,46.7110178 414.1624,47.3407632 413.740841,48.109478 L413.740841,57.3517486 C414.1624,58.108637 414.724471,58.7265561 415.42707,59.2055246 C416.129669,59.684493 417.019614,59.9239736 418.096932,59.9239736 C418.998601,59.9239736 419.777303,59.7317978 420.433062,59.3474404 C421.088821,58.9630831 421.627472,58.4456866 422.049031,57.7952357 C422.47059,57.1447847 422.783828,56.3938208 422.988752,55.5423213 C423.193677,54.6908219 423.296138,53.7979435 423.296138,52.8636594 L423.296138,52.4911303 Z M432.605526,35 L442.318907,35 L442.318907,59.4095286 L448.519311,59.4095286 L448.519311,62.2478459 L432.605526,62.2478459 L432.605526,59.4095286 L439.069404,59.4095286 L439.069404,37.8560568 L432.605526,37.8560568 L432.605526,35 Z M466.172019,62.2478459 C466.04321,61.9994919 465.940749,61.6890541 465.864634,61.3165231 C465.788519,60.9439921 465.732898,60.5566839 465.697768,60.1545869 C465.369888,60.4857256 465.003957,60.79912 464.599962,61.0947795 C464.195968,61.3904391 463.750995,61.6506155 463.265031,61.8753168 C462.779067,62.100018 462.260908,62.2774111 461.710539,62.4075013 C461.16017,62.5375915 460.57468,62.6026356 459.954051,62.6026356 C458.946992,62.6026356 458.036555,62.454808 457.222711,62.1591485 C456.408867,61.863489 455.717989,61.4643546 455.150055,60.9617334 C454.582121,60.4591122 454.143003,59.8618889 453.832688,59.1700456 C453.522374,58.4782023 453.367219,57.7301949 453.367219,56.926001 C453.367219,55.8734531 453.575068,54.9510092 453.990772,54.1586417 C454.406477,53.3662741 454.994895,52.7069633 455.756043,52.1806893 C456.517192,51.6544153 457.433484,51.2611941 458.504948,51.0010137 C459.576411,50.7408333 460.773739,50.6107451 462.096966,50.6107451 L465.645073,50.6107451 L465.645073,49.102889 C465.645073,48.5233963 465.539685,48.0030434 465.328905,47.5418145 C465.118125,47.0805856 464.819525,46.6873644 464.433096,46.3621389 C464.046667,46.0369134 463.575347,45.7856066 463.019123,45.6082108 C462.462899,45.4308151 461.839352,45.3421186 461.148463,45.3421186 C460.504414,45.3421186 459.927706,45.424902 459.418322,45.5904714 C458.908937,45.7560407 458.478602,45.9748255 458.127303,46.2468322 C457.776003,46.518839 457.50375,46.8411031 457.310536,47.2136341 C457.117321,47.5861651 457.020715,47.9734732 457.020715,48.3755702 L453.753647,48.3755702 C453.765356,47.6778137 453.943931,46.9918939 454.289375,46.3177902 C454.63482,45.6436864 455.132487,45.0375935 455.782391,44.4994932 C456.432295,43.9613928 457.222706,43.5267798 458.15365,43.1956412 C459.084593,42.8645025 460.141403,42.6989356 461.324111,42.6989356 C462.40143,42.6989356 463.402618,42.8319804 464.327707,43.098074 C465.252795,43.3641676 466.051989,43.7662585 466.725313,44.3043588 C467.398637,44.8424592 467.928506,45.5135962 468.314935,46.3177902 C468.701365,47.1219841 468.894576,48.0621673 468.894576,49.138368 L468.894576,58.0613279 C468.894576,58.6999525 468.953125,59.3770027 469.070225,60.0924987 C469.187325,60.8079948 469.351262,61.431827 469.562042,61.9640142 L469.562042,62.2478459 L466.172019,62.2478459 Z M460.428302,59.7465788 C461.060641,59.7465788 461.651987,59.6637954 462.202356,59.4982261 C462.752725,59.3326567 463.253319,59.1138719 463.704153,58.8418652 C464.154988,58.5698584 464.544339,58.2594206 464.872218,57.9105423 C465.200098,57.5616641 465.457713,57.1980083 465.645073,56.8195641 L465.645073,52.9346173 L462.623913,52.9346173 C460.726896,52.9346173 459.25146,53.2184462 458.197562,53.7861125 C457.143664,54.3537788 456.616723,55.2466572 456.616723,56.4647745 C456.616723,56.9378297 456.695764,57.3753992 456.853849,57.7774962 C457.011933,58.1795932 457.249057,58.5255096 457.565226,58.815256 C457.881396,59.1050023 458.279529,59.3326567 458.759638,59.4982261 C459.239748,59.6637954 459.795963,59.7465788 460.428302,59.7465788 Z M482.964048,38.4059807 L482.964048,43.0537253 L490.200781,43.0537253 L490.200781,45.5904714 L482.964048,45.5904714 L482.964048,56.0212874 C482.964048,56.7663494 483.057727,57.381312 483.245087,57.8661936 C483.432446,58.3510752 483.690062,58.7383834 484.017942,59.0281298 C484.345821,59.3178761 484.723462,59.5218781 485.150877,59.6401419 C485.578291,59.7584057 486.032046,59.8175367 486.512155,59.8175367 C486.863454,59.8175367 487.226458,59.7968409 487.601178,59.7554486 C487.975897,59.7140562 488.341829,59.6637949 488.698983,59.6046629 C489.056138,59.545531 489.389867,59.4834435 489.700181,59.4183984 C490.010496,59.3533533 490.265184,59.2971788 490.464254,59.2498733 L490.920941,61.5737456 C490.651611,61.7393149 490.323737,61.8841859 489.937307,62.0083629 C489.550878,62.1325399 489.129325,62.2389757 488.672636,62.3276736 C488.215946,62.4163715 487.732917,62.4843721 487.223533,62.5316776 C486.714149,62.5789832 486.2077,62.6026356 485.70417,62.6026356 C484.861052,62.6026356 484.073567,62.481417 483.341693,62.2389762 C482.60982,61.9965354 481.974563,61.6121837 481.435904,61.0859098 C480.897244,60.5596358 480.472764,59.8796291 480.162449,59.0458692 C479.852135,58.2121094 479.69698,57.2039255 479.69698,56.0212874 L479.69698,45.5904714 L474.708553,45.5904714 L474.708553,43.0537253 L479.69698,43.0537253 L479.69698,38.4059807 L482.964048,38.4059807 Z M505.253886,62.6026356 C503.918948,62.6026356 502.692346,62.3720246 501.574043,61.9107957 C500.45574,61.4495669 499.498463,60.8050388 498.702184,59.9771921 C497.905906,59.1493454 497.285286,58.1677705 496.840307,57.0324379 C496.395328,55.8971053 496.172841,54.661267 496.172841,53.324886 L496.172841,52.5798277 C496.172841,51.0305717 496.418747,49.6439494 496.910566,48.4199189 C497.402386,47.1958885 498.055207,46.1610956 498.869051,45.3155094 C499.682895,44.4699231 500.607969,43.8224385 501.644303,43.373036 C502.680636,42.9236335 503.743301,42.6989356 504.832329,42.6989356 C506.202397,42.6989356 507.399724,42.9384163 508.424348,43.4173847 C509.448971,43.8963531 510.300859,44.5586205 510.980038,45.4042068 C511.659217,46.249793 512.165666,47.2461507 512.499401,48.3933097 C512.833135,49.5404687 513,50.78222 513,52.1186011 L513,53.5909782 L499.422345,53.5909782 C499.457475,54.4661304 499.624339,55.2880516 499.922944,56.0567663 C500.221548,56.8254811 500.631392,57.4966182 501.152486,58.0701977 C501.67358,58.6437772 502.297127,59.0961294 503.023146,59.4272681 C503.749165,59.7584068 504.551286,59.9239736 505.429535,59.9239736 C506.588823,59.9239736 507.619286,59.6874496 508.520955,59.2143943 C509.422623,58.7413391 510.172051,58.1145503 510.76926,57.3340091 L512.754092,58.8950836 C512.437922,59.3799653 512.042716,59.8441438 511.568462,60.287633 C511.094208,60.7311223 510.546774,61.1243436 509.926145,61.4673087 C509.305516,61.8102737 508.602928,62.085233 507.818359,62.2921946 C507.033791,62.4991563 506.178975,62.6026356 505.253886,62.6026356 Z M504.832329,45.3953371 C504.17657,45.3953371 503.55595,45.5165556 502.970451,45.7589965 C502.384952,46.0014373 501.858011,46.3562234 501.389612,46.8233654 C500.921212,47.2905075 500.526007,47.8640784 500.203982,48.5440953 C499.881958,49.2241122 499.656544,50.0075982 499.527734,50.8945768 L509.750496,50.8945768 L509.750496,50.646224 C509.715367,50.0075994 509.595341,49.3748975 509.390416,48.7480993 C509.185492,48.1213011 508.883964,47.5595565 508.485825,47.0628485 C508.087685,46.5661404 507.587091,46.1640495 506.984027,45.8565636 C506.380963,45.5490777 505.663738,45.3953371 504.832329,45.3953371 Z" id="android-library-template" fill="#000000" fill-rule="nonzero"></path>
    </g>
</svg>